<svg xmlns="http://www.w3.org/2000/svg" xmlns:xlink="http://www.w3.org/1999/xlink" version="1.1" x="0px" y="0px" viewBox="0 0 64 80" style="enable-background:new 0 0 64 64;" xml:space="preserve"><g><path d="M53.528,15c-1.324,0-2.514,0.736-3.105,1.919l-5.975,11.95C44.35,29.065,44,28.983,44,28.764l0.002-0.707l2.957-19.712   C46.986,8.164,47,7.981,47,7.713C47,5.666,45.332,4,43.218,4c-1.777,0-3.278,1.272-3.569,3.023l-3.484,20.908   C36.149,28.014,36,28.003,36,27.917V5c0-2.206-1.794-4-4-4s-4,1.794-4,4v22.917c0,0.087-0.151,0.098-0.164,0.019L24.363,7.092   C24.064,5.3,22.521,4,20.632,4c-0.971,0-1.883,0.378-2.569,1.065C17.377,5.751,17,6.664,17,7.634v0.183   c0,0.167,0.011,0.335,0.034,0.501L20,30.088v0.609c0,0.269-0.406,0.391-0.555,0.168l-3.726-5.589C14.352,23.225,12.063,22,9.597,22   C8.165,22,7,23.165,7,24.597c0,0.429,0.107,0.855,0.311,1.231L21,51.252V63h24V51.303l2.215-3.322   c1.127-1.69,2.001-3.532,2.598-5.473l7.033-22.857C56.948,19.319,57,18.976,57,18.628v-0.156C57,16.558,55.442,15,53.528,15z    M48.447,25.342l3.948,1.974l-0.737,2.395l-4.317-2.158L48.447,25.342z M42.454,24.895l-3.655-0.609l0.347-2.081l3.621,0.604   L42.454,24.895z M43.816,15.817l-0.752,5.014l-3.589-0.598l0.833-5L43.816,15.817z M40.637,13.259l0.347-2.081l3.442,0.574   l-0.313,2.087L40.637,13.259z M43.281,6C44.229,6,45,6.769,45,7.798c0,0.085-0.007,0.171-0.019,0.253l-0.258,1.722l-3.41-0.568   l0.309-1.853C41.752,6.568,42.423,6,43.281,6z M34,21h-4v-5h4V21z M34,14h-4v-2h4V14z M32,3c1.103,0,2,0.897,2,2v5h-4V5   C30,3.897,30.897,3,32,3z M25.174,24.124l-3.878,0.646l-0.263-1.929l3.821-0.637L25.174,24.124z M23.692,15.232l0.833,5   l-3.762,0.627l-0.685-5.025L23.692,15.232z M19.807,13.852l-0.285-2.092l3.495-0.582l0.347,2.081L19.807,13.852z M19,7.633   c0-0.436,0.169-0.846,0.478-1.155C19.786,6.17,20.196,6,20.694,6c0.846,0,1.559,0.598,1.696,1.42l0.297,1.784l-3.436,0.573   l-0.236-1.731C19.005,7.97,19,7.893,19,7.816V7.633z M16.348,29.825l-3.488,2.093l-0.76-1.412l3.358-2.015L16.348,29.825z    M9,24.597C9,24.268,9.268,24,9.597,24c1.796,0,3.462,0.892,4.458,2.386l0.293,0.439l-3.197,1.918l-2.08-3.864   C9.024,24.793,9,24.696,9,24.597z M47.902,41.919c-0.541,1.756-1.332,3.422-2.351,4.952L43,50.697V61H23V50.748L13.81,33.68   l3.649-2.189l0.323,0.484C18.209,32.617,18.926,33,19.697,33C20.967,33,22,31.967,22,30.697v-0.609   c0-0.104-0.007-0.207-0.021-0.311l-0.412-3.025l3.936-0.656l0.361,2.168C26.031,29.271,26.895,30,27.917,30   C29.066,30,30,29.066,30,27.917V23h4v4.917C34,29.066,34.934,30,36.083,30c1.022,0,1.887-0.732,2.055-1.74l0.333-2.001l3.687,0.615   l-0.133,0.885C42.008,27.87,42,27.98,42,28.092v0.672C42,29.997,43.003,31,44.236,31c0.852,0,1.619-0.474,2-1.235l0.211-0.423   l4.615,2.307L47.902,41.919z M55,18.628c0,0.147-0.022,0.292-0.065,0.433l-1.943,6.316l-3.65-1.825l2.87-5.739   C52.462,17.312,52.966,17,53.528,17C54.339,17,55,17.661,55,18.472V18.628z"/><rect x="31" y="5" width="2" height="2"/><rect x="26" y="56" width="2" height="2"/><rect x="30" y="56" width="2" height="2"/><rect x="34" y="56" width="2" height="2"/><rect x="38" y="56" width="2" height="2"/><path d="M32,36c-2.847,0-5.523,1.108-7.536,3.122L21.586,42l2.878,2.878C26.477,46.892,29.153,48,32,48s5.523-1.108,7.536-3.122   L42.414,42l-2.878-2.878C37.523,37.108,34.847,36,32,36z M36,42c0,2.206-1.794,4-4,4s-4-1.794-4-4s1.794-4,4-4S36,39.794,36,42z    M24.414,42l1.464-1.464c0.132-0.132,0.273-0.252,0.412-0.374C26.104,40.742,26,41.359,26,42s0.104,1.258,0.291,1.838   c-0.139-0.122-0.28-0.242-0.412-0.374L24.414,42z M38.122,43.464c-0.132,0.132-0.273,0.252-0.412,0.374   C37.896,43.258,38,42.641,38,42s-0.104-1.258-0.291-1.838c0.139,0.122,0.28,0.242,0.412,0.374L39.586,42L38.122,43.464z"/><path d="M32,32c-7.45,0-11.657,6.182-11.832,6.445l1.664,1.109C21.869,39.499,25.609,34,32,34c6.36,0,10.132,5.5,10.169,5.556   l1.663-1.111C43.657,38.182,39.45,32,32,32z"/><rect x="31" y="41" width="2" height="2"/></g><text x="0" y="79" fill="#000000" font-size="5px" font-weight="bold" font-family="'Helvetica Neue', Helvetica, Arial-Unicode, Arial, Sans-serif">Created by Eucalyp</text><text x="0" y="84" fill="#000000" font-size="5px" font-weight="bold" font-family="'Helvetica Neue', Helvetica, Arial-Unicode, Arial, Sans-serif">from the Noun Project</text></svg>